<svg width="32" height="32" viewBox="0 0 32 32" fill="none" xmlns="http://www.w3.org/2000/svg">
<path d="M23 3.66675H9.00002C7.32032 3.66675 5.70941 4.33401 4.52168 5.52174C3.33395 6.70947 2.66669 8.32038 2.66669 10.0001V22.0001C2.66669 22.8318 2.8305 23.6553 3.14878 24.4237C3.46706 25.1921 3.93357 25.8903 4.52168 26.4784C5.70941 27.6662 7.32032 28.3334 9.00002 28.3334H23C24.6786 28.3299 26.2875 27.6615 27.4745 26.4745C28.6614 25.2876 29.3298 23.6787 29.3334 22.0001V10.0001C29.3298 8.32146 28.6614 6.7126 27.4745 5.52563C26.2875 4.33866 24.6786 3.67027 23 3.66675ZM18.1334 14.7601C17.4774 15.1342 16.7352 15.3309 15.98 15.3309C15.2248 15.3309 14.4827 15.1342 13.8267 14.7601L4.69335 9.52008C4.81145 8.46048 5.31603 7.48161 6.11058 6.7707C6.90512 6.05979 7.93386 5.66675 9.00002 5.66675H23C24.0653 5.66967 25.0925 6.06372 25.8864 6.77408C26.6804 7.48444 27.1858 8.46163 27.3067 9.52008L18.1334 14.7601Z" fill="#019141"/>
</svg>
