<svg width="32" height="32" viewBox="0 0 32 32" fill="none" xmlns="http://www.w3.org/2000/svg">
<path d="M16.0013 2.66675C23.3653 2.66675 29.3347 8.63608 29.3347 16.0001C29.3347 23.3641 23.3653 29.3334 16.0013 29.3334C13.645 29.3375 11.3301 28.7139 9.29466 27.5267L2.67332 29.3334L4.47599 22.7094C3.28793 20.6733 2.66386 18.3574 2.66799 16.0001C2.66799 8.63608 8.63732 2.66675 16.0013 2.66675ZM11.4573 9.73342L11.1907 9.74408C11.0182 9.75596 10.8498 9.80125 10.6947 9.87741C10.5501 9.95943 10.4181 10.0618 10.3027 10.1814C10.1427 10.3321 10.052 10.4627 9.95466 10.5894C9.46149 11.2306 9.19595 12.0178 9.19999 12.8267C9.20266 13.4801 9.37332 14.1161 9.63999 14.7107C10.1853 15.9134 11.0827 17.1867 12.2667 18.3667C12.552 18.6507 12.832 18.9361 13.1333 19.2014C14.6046 20.4966 16.3577 21.4307 18.2533 21.9294L19.0107 22.0454C19.2573 22.0587 19.504 22.0401 19.752 22.0281C20.1402 22.0076 20.5193 21.9025 20.8627 21.7201C21.0371 21.6299 21.2075 21.532 21.3733 21.4267C21.3733 21.4267 21.4298 21.3885 21.54 21.3067C21.72 21.1734 21.8307 21.0787 21.98 20.9227C22.092 20.8072 22.1853 20.673 22.26 20.5201C22.364 20.3027 22.468 19.8881 22.5107 19.5427C22.5427 19.2787 22.5333 19.1347 22.5293 19.0454C22.524 18.9027 22.4053 18.7547 22.276 18.6921L21.5 18.3441C21.5 18.3441 20.34 17.8387 19.6307 17.5161C19.5564 17.4838 19.4769 17.4652 19.396 17.4614C19.3048 17.4519 19.2125 17.4621 19.1256 17.4913C19.0386 17.5205 18.959 17.5681 18.892 17.6307C18.8853 17.6281 18.796 17.7041 17.832 18.8721C17.7767 18.9464 17.7004 19.0026 17.6131 19.0335C17.5257 19.0644 17.4311 19.0685 17.3413 19.0454C17.2544 19.0223 17.1693 18.9928 17.0867 18.9574C16.9213 18.8881 16.864 18.8614 16.7507 18.8134C15.9852 18.48 15.2766 18.0287 14.6507 17.4761C14.4827 17.3294 14.3267 17.1694 14.1667 17.0147C13.6421 16.5124 13.185 15.9441 12.8067 15.3241L12.728 15.1974C12.6723 15.1118 12.6267 15.0201 12.592 14.9241C12.5413 14.7281 12.6733 14.5707 12.6733 14.5707C12.6733 14.5707 12.9973 14.2161 13.148 14.0241C13.2947 13.8374 13.4187 13.6561 13.4987 13.5267C13.656 13.2734 13.7053 13.0134 13.6227 12.8121C13.2493 11.9001 12.8635 10.993 12.4653 10.0907C12.3867 9.91208 12.1533 9.78408 11.9413 9.75875C11.8693 9.74986 11.7973 9.74275 11.7253 9.73741C11.5463 9.72715 11.3668 9.72893 11.188 9.74275L11.4573 9.73342Z" fill="#019141"/>
</svg>
